PathFileType	4	(X/Y/Z)	OpenSim_Sub09_EMGBaseline_Magnet.trc
DataRate	CameraRate	NumFrames	NumMarkers	Units	OrigDataRate	OrigDataStartFrame	OrigNumFrames
100	100	30	8	m	100	6389	7301
Frame#	Time	torso_imu_offset_imu	pelvis_imu_offset_imu	tibia_r_imu_offset_imu	femur_r_imu_offset_imu	tibia_l_imu_offset_imu	femur_l_imu_offset_imu	toes_r_imu_offset_imu	toes_l_imu_offset_imu
				X1	Y1	Z1	X2	Y2	Z2	X3	Y3	Z3	X4	Y4	Z4	X5	Y5	Z5	X6	Y6	Z6	X7	Y7	Z7	X8		Y8	Z8	

6389	63.88000000	-0.91479500	-0.15844700	0.00512700	-0.67309600	0.14697300	-0.60131800	-0.30957000	-0.80761700	-0.07251000	-0.63208000	-0.51001000	0.16113300	-0.71630900	0.30249000	0.11377000	-0.79589800	0.08032200	0.22973600	-0.73388700	-0.22729500	-0.18823200	-0.61669900	-0.11547900	-0.46899400
6390	63.89000000	-0.91479500	-0.15844700	0.00732400	-0.68408200	0.15112300	-0.59668000	-0.29687500	-0.80981400	-0.07251000	-0.63037100	-0.50170900	0.15625000	-0.70532200	0.31347700	0.11962900	-0.79150400	0.08032200	0.23217800	-0.73608400	-0.22949200	-0.16113300	-0.63232400	-0.11572300	-0.45117200
6391	63.90000000	-0.91699200	-0.15625000	-0.00390600	-0.68798800	0.14257800	-0.59399400	-0.28002900	-0.81591800	-0.07446300	-0.63671900	-0.49536100	0.14477500	-0.69873000	0.31787100	0.11718800	-0.79589800	0.08032200	0.23217800	-0.74414100	-0.24414100	-0.12548800	-0.63037100	-0.11352500	-0.44213900
6392	63.91000000	-0.91699200	-0.15625000	0.00268600	-0.68603500	0.14477500	-0.58960000	-0.25268600	-0.82226600	-0.07421900	-0.64306600	-0.49340800	0.13989300	-0.70141600	0.33300800	0.12988300	-0.79394500	0.08252000	0.23437500	-0.74389600	-0.25024400	-0.08789100	-0.64160200	-0.11132800	-0.43994100
6393	63.92000000	-0.91918900	-0.16040000	-0.00585900	-0.68823200	0.14477500	-0.59179700	-0.23364300	-0.83056600	-0.07397500	-0.65161100	-0.48510700	0.12597700	-0.69043000	0.33960000	0.14062500	-0.79370100	0.08032200	0.24560500	-0.74585000	-0.25878900	-0.04614300	-0.65039100	-0.11132800	-0.43774400
6394	63.93000000	-0.91918900	-0.16040000	-0.01245100	-0.69043000	0.14892600	-0.58960000	-0.21484400	-0.83056600	-0.07373000	-0.66455100	-0.47485400	0.11865200	-0.69043000	0.34399400	0.14941400	-0.79370100	0.08252000	0.24340800	-0.74560500	-0.26709000	-0.00659200	-0.65283200	-0.10937500	-0.42871100
6395	63.94000000	-0.91918900	-0.15844700	-0.01269500	-0.69458000	0.14672900	-0.58960000	-0.19604500	-0.83056600	-0.08276400	-0.66894500	-0.46655300	0.11377000	-0.68188500	0.35498000	0.15527300	-0.79150400	0.08252000	0.24560500	-0.73510700	-0.27319300	0.03100600	-0.65966800	-0.10278300	-0.43090800
6396	63.95000000	-0.91503900	-0.15405300	-0.01049800	-0.68188500	0.14892600	-0.59423800	-0.17480500	-0.83471700	-0.07812500	-0.67749000	-0.45629900	0.10864300	-0.68164100	0.35058600	0.16894500	-0.78735400	0.08911100	0.25659200	-0.73266600	-0.28759800	0.06665000	-0.65307600	-0.10058600	-0.42651400
6397	63.96000000	-0.91479500	-0.15844700	-0.01245100	-0.68847700	0.15527300	-0.58764600	-0.15185500	-0.83886700	-0.07128900	-0.68432600	-0.43969700	0.09887700	-0.67285200	0.35717800	0.17749000	-0.78784200	0.09985400	0.25439500	-0.71801800	-0.29785200	0.10644500	-0.65771500	-0.10058600	-0.42187500
6398	63.97000000	-0.91064500	-0.15625000	-0.01928700	-0.69067400	0.15747100	-0.58984400	-0.13940400	-0.83886700	-0.06225600	-0.68872100	-0.43139600	0.09155300	-0.67089800	0.36816400	0.18798800	-0.79003900	0.10424800	0.26098600	-0.70703100	-0.31835900	0.14843800	-0.65991200	-0.09838900	-0.42431600
6399	63.98000000	-0.91503900	-0.15625000	-0.01709000	-0.68872100	0.15942400	-0.58764600	-0.12475600	-0.83667000	-0.04663100	-0.70605500	-0.41503900	0.08862300	-0.65991200	0.36816400	0.19458000	-0.78393600	0.11303700	0.25634800	-0.68164100	-0.33837900	0.17602500	-0.65307600	-0.10058600	-0.42431600
6400	63.99000000	-0.91064500	-0.16040000	-0.01684600	-0.68457000	0.16577100	-0.58789100	-0.10791000	-0.84082000	-0.02856400	-0.71264600	-0.40063500	0.08349600	-0.65795900	0.37915000	0.20092800	-0.78198200	0.12597700	0.26074200	-0.67700200	-0.35693400	0.21167000	-0.66455100	-0.09399400	-0.41967800
6401	64	-0.91284200	-0.15625000	-0.01928700	-0.68896500	0.16796900	-0.58569300	-0.09765600	-0.84106400	-0.00610400	-0.72143600	-0.38598600	0.07836900	-0.65576200	0.38574200	0.19604500	-0.78222700	0.13037100	0.26977500	-0.65576200	-0.37500000	0.23291000	-0.66455100	-0.09179700	-0.41748000
6402	64.01000000	-0.91064500	-0.15820300	-0.01904300	-0.68701200	0.17407200	-0.58813500	-0.08911100	-0.84301800	0.01171900	-0.72802700	-0.37793000	0.06884800	-0.65600600	0.39013700	0.19580100	-0.77832000	0.14355500	0.27172900	-0.63427700	-0.39941400	0.25219700	-0.66479500	-0.08960000	-0.41967800
6403	64.02000000	-0.90429700	-0.15820300	-0.01904300	-0.68481400	0.17846700	-0.59082000	-0.07666000	-0.84301800	0.03418000	-0.73657200	-0.36962900	0.06616200	-0.64721700	0.39672900	0.18627900	-0.77392600	0.15014600	0.27172900	-0.62353500	-0.41137700	0.26709000	-0.66674800	-0.09399400	-0.41528300
6404	64.03000000	-0.90844700	-0.16040000	-0.01904300	-0.68481400	0.17407200	-0.58593800	-0.06884800	-0.83276400	0.05175800	-0.74340800	-0.35107400	0.05639600	-0.64965800	0.40551800	0.19043000	-0.77417000	0.15429700	0.26953100	-0.62133800	-0.41967800	0.26098600	-0.66918900	-0.09179700	-0.41748000
6405	64.04000000	-0.91259800	-0.16259800	-0.02343800	-0.67871100	0.18676800	-0.57934600	-0.06469700	-0.83276400	0.04711900	-0.75219700	-0.33447300	0.05346700	-0.64331100	0.41430700	0.19677700	-0.76782200	0.16528300	0.27612300	-0.62744100	-0.42358400	0.24023400	-0.67578100	-0.09423800	-0.41088900
6406	64.05000000	-0.91040000	-0.16040000	-0.02124000	-0.68310500	0.18676800	-0.58178700	-0.05639600	-0.83276400	0.05835000	-0.75903300	-0.32006800	0.04834000	-0.63671900	0.42089800	0.19409200	-0.76806600	0.16967800	0.28271500	-0.63134800	-0.42968800	0.22558600	-0.67114300	-0.09643600	-0.41528300
6407	64.06000000	-0.91040000	-0.16455100	-0.02099600	-0.68115200	0.19506800	-0.57983400	-0.05835000	-0.83056600	0.05175800	-0.76562500	-0.30981400	0.05688500	-0.63891600	0.42309600	0.20507800	-0.76367200	0.16748000	0.28271500	-0.63354500	-0.42773400	0.21093800	-0.67334000	-0.09643600	-0.40844700
6408	64.07000000	-0.91015600	-0.16894500	-0.02099600	-0.68335000	0.19506800	-0.57495100	-0.05859400	-0.82641600	0.03808600	-0.76782200	-0.29931600	0.05200200	-0.63891600	0.42089800	0.21411100	-0.77075200	0.18481400	0.28710900	-0.64184600	-0.42773400	0.19848600	-0.68017600	-0.09423800	-0.41088900
6409	64.08000000	-0.90576200	-0.17309600	-0.01416000	-0.67919900	0.20141600	-0.57983400	-0.06665000	-0.83471700	0.02929700	-0.77856400	-0.28906200	0.04467800	-0.63452100	0.42089800	0.21630900	-0.75976600	0.18286100	0.28271500	-0.65258800	-0.41772500	0.18798800	-0.67993200	-0.10302700	-0.40625000
6410	64.09000000	-0.90576200	-0.17529300	-0.02050800	-0.68164100	0.20776400	-0.58252000	-0.07934600	-0.82836900	0.01586900	-0.78320300	-0.27465800	0.04418900	-0.63012700	0.42529300	0.22509800	-0.75781200	0.19360400	0.28930700	-0.65869100	-0.41772500	0.16503900	-0.68212900	-0.10083000	-0.41088900
6411	64.10000000	-0.90795900	-0.17724600	-0.02270500	-0.68164100	0.21411100	-0.58740200	-0.09594700	-0.82836900	0.00000000	-0.79003900	-0.25610400	0.05029300	-0.63232400	0.42749000	0.22485400	-0.76025400	0.20019500	0.28906200	-0.66308600	-0.40332000	0.14599600	-0.68408200	-0.10742200	-0.40405300
6412	64.11000000	-0.90380900	-0.17309600	-0.01855500	-0.67553700	0.22045900	-0.58520500	-0.11889600	-0.82836900	-0.01342800	-0.79248000	-0.24560500	0.04541000	-0.62548800	0.42529300	0.22485400	-0.75610400	0.20678700	0.28686500	-0.67187500	-0.39306600	0.11865200	-0.68896500	-0.10083000	-0.40405300
6413	64.12000000	-0.90795900	-0.17724600	-0.01831100	-0.67358400	0.22680700	-0.58325200	-0.13378900	-0.82006800	-0.01806600	-0.80346700	-0.23120100	0.04467800	-0.62133800	0.43627900	0.23339800	-0.75854500	0.21093800	0.29126000	-0.68652300	-0.38305700	0.09545900	-0.68212900	-0.10522500	-0.40405300
6414	64.13000000	-0.90380900	-0.17309600	-0.01855500	-0.67382800	0.23315400	-0.58349600	-0.16064500	-0.82641600	-0.02246100	-0.80175800	-0.21679700	0.04199200	-0.62402300	0.44506800	0.22631800	-0.75219700	0.21972700	0.29126000	-0.69311500	-0.36669900	0.07226600	-0.68652300	-0.10522500	-0.40185500
6415	64.14000000	-0.90161100	-0.17504900	-0.02050800	-0.66723600	0.23315400	-0.58105500	-0.18188500	-0.81591800	-0.02514600	-0.80810500	-0.21044900	0.03930700	-0.62158200	0.44287100	0.22192400	-0.75000000	0.22192400	0.28442400	-0.70385700	-0.35839800	0.03686500	-0.68432600	-0.10522500	-0.39721700
6416	64.15000000	-0.90991200	-0.17944300	-0.02270500	-0.66992200	0.24585000	-0.58618200	-0.21142600	-0.80761700	-0.03222700	-0.81274400	-0.19824200	0.03198200	-0.61279300	0.44506800	0.23266600	-0.75024400	0.22631800	0.28881800	-0.71460000	-0.34228500	0.00512700	-0.68872100	-0.10742200	-0.40185500
6417	64.16000000	-0.90136700	-0.17944300	-0.01831100	-0.67016600	0.25195300	-0.58422900	-0.23681600	-0.80151400	-0.04126000	-0.81713900	-0.18774400	0.02710000	-0.61279300	0.44506800	0.22607400	-0.74633800	0.24169900	0.29321300	-0.72338900	-0.32592800	-0.03051800	-0.69091800	-0.10766600	-0.39965800
6418	64.17000000	-0.90551800	-0.18164100	-0.01806600	-0.66796900	0.25415000	-0.58178700	-0.27026400	-0.79931600	-0.03247100	-0.81323200	-0.17749000	0.02441400	-0.61523400	0.44946300	0.23486300	-0.74218800	0.24804700	0.29760700	-0.72583000	-0.30737300	-0.06005900	-0.69311500	-0.10986300	-0.39721700
